<svg width="294" height="327" xmlns="http://www.w3.org/2000/svg"><g fill="none" fill-rule="evenodd"><path d="M172.857 16.11c-5.795 10.526-5.107 37.226 2.383 39.107 2.986.75 9.349-1.087 15.824-4.89L187 78.347h24l-8.261-37.529c4.607-5.27 7.725-11.73 7.204-18.967-1.501-20.855-31.292-16.267-37.086-5.741Z" fill="#B28B67"/><path d="M204.582 45.515c3.012-13.06 11.593-21.962 10.283-27.799-.874-3.89-3.203-6.31-6.986-7.26-1.957-7.714-8.269-10.995-18.935-9.843-15.999 1.728-25.763 8.202-21.546 22.45 3.876 0 8.556-1.366 15.026.974 2.054.743 3.522 3.046 4.406 6.91h2.924c2.838-4.585 5.637-6.27 8.395-5.055 2.759 1.215 3.386 4.167 1.881 8.856l1.44 10.767h3.112Z" fill="#191847"/><path d="M163 200.161c-8.837 0-16 7.164-16 16V305c0 8.837 7.163 16 16 16h115c8.837 0 16-7.163 16-16v-88.839c0-8.836-7.163-16-16-16H163Zm16 27.287h83a4 4 0 0 1 4 4v58.266a4 4 0 0 1-4 4h-83a4 4 0 0 1-4-4v-58.266a4 4 0 0 1 4-4Z" fill="#C5CFD6"/><path d="M47.841 316.127c19.716-23.462 33.056-40.855 40.02-52.18 11.926-19.392 21.686-36.647 24.766-43.239 7.345-15.718-16.909-23.078-22.398-15.746-8.308 11.096-26.051 46.013-53.229 104.75l10.841 6.415Z" fill="#B28B67"/><path d="m88.242 309.306 36.693-90.008c7.848-16.408-30.05-27.194-35.818-19.558C76.023 217.076 44.9 285.464 41 290.63l47.242 18.677Z" fill="#2F3676"/><path d="M184.909 290.891c-6.946-10.176-32.244-44.389-46.08-58.502a1022.22 1022.22 0 0 0-11.528-11.573c-10.91-10.778-33.146 7.848-22.243 17.653 27.153 24.417 66.805 57.341 70.115 60.28 4.64 4.118 14.1-1.462 9.736-7.858Z" fill="#B28B67"/><path d="M184.234 286.317c2.42 1.958 3.99 3.562 4.712 4.812.879 1.522 1.9 3.893 3.066 7.113l-48.845 28.201c-3.63-3.356-4.172-5.987-1.626-7.892a320.115 320.115 0 0 0 6.306-4.818l17.017-22.982a1 1 0 0 1 1.406-.203l3.449 2.605c3.196-.31 5.586-.923 7.168-1.837 1.29-.745 2.78-2.284 4.468-4.617a2 2 0 0 1 2.879-.382ZM56.325 312.63c1.117 2.906 1.675 5.08 1.675 6.524 0 1.757-.3 4.322-.901 7.693H.697c-1.466-4.722-.62-7.271 2.538-7.648 3.158-.376 5.781-.716 7.87-1.02l26.229-11.394a1 1 0 0 1 1.319.527l1.684 3.98c2.923 1.33 5.299 1.994 7.126 1.994 1.49 0 3.55-.588 6.178-1.764a2 2 0 0 1 2.684 1.108Z" fill="#E4E4E4"/><path d="M138.138 223.793c30.497-4.841 50.924-8.152 61.281-9.932 29.524-5.073 38.133-20.555 33.043-54.334h-54.396c-7.199 2.026-37.276 14.554-90.234 37.586-9.528 4.61-7.753 18.2-6.012 22.677.071.183 16.134 27.004 48.188 80.465l44.498-27.624-36.452-45.583c-.962-1.889-.934-2.974.084-3.255Z" fill="#5C63AB"/><path d="M235.593 147.449c13.105 40.704 20.178 62.302 21.219 64.794 2.34 5.607-2.505 14.102-4.573 18.67 6.829 3.013 6.044-8.017 14.659-4.068 7.863 3.605 13.864 10.094 22.898 4.68 1.11-.666 2.318-3.188-.643-5.179-7.375-4.96-18.013-13.63-19.459-16.472-1.972-3.877-6.38-24.676-13.227-62.397Zm-101.405-.65-31.865 22.786c-8.647 2.264-15.871 5.085-21.67 8.463-1.37 1.216-3.024 3.68 2.662 3.261 5.685-.418 11.686-.61 12.473 1.282.787 1.891-2.651 4.147-1.062 6.7 1.06 1.702 6.05-2.555 14.968-12.77l31.568-12.724-7.074-16.997Z" fill="#B28B67"/><path d="m197.427 61.992-8.643-1.427c-32.138 27.085-45.431 79.012-84.812 106.591l9.437 11.415c68.23-8.384 85.28-71.724 84.018-116.58Z" fill="#E87613"/><path d="M235 168.003h-76.511c-3.497 0-2.838-4.92-2.332-7.402 5.832-28.651 28.602-59.535 28.602-100.32l22.07-3.372c18.254 28.61 24.566 63.835 28.171 111.094Z" fill="#DDE3E9"/><path d="M208.49 56.91c-.744 0-1.426.045-2.046.135l-6.916.385c-19.624 64.813-25.178 108.271-16.663 130.374l.263.663h60.22c3.568 8.108 6.982 14.93 10.243 20.465H270c1.544-48.66-10.328-89.96-35.616-123.901 3.206-.897 5.745-2.991 7.616-6.282 8.066-14.184 5.153-21.993-3.467-24.56s-16.308 2.72-30.043 2.72Z" fill="#FF9B21"/><path d="M221 188.467h22.348c-4.162-9.457-8.533-20.664-13.113-33.621-1.894 15.44-4.972 26.648-9.235 33.621Z" fill-opacity=".1" fill="#000"/></g></svg>