<svg width="41" height="24" xmlns="http://www.w3.org/2000/svg"><g fill="#FEFEFE" fill-rule="evenodd"><path d="m2.765 11.514 8.7-5.958a.45.45 0 0 0 .198-.377V2.955c0-.36-.387-.579-.677-.38L.585 9.747a.454.454 0 0 0-.196.377v3.5c0 .152.074.295.196.377l10.401 7.174c.29.2.677-.016.677-.377v-2.189a.45.45 0 0 0-.198-.377l-8.7-5.96a.465.465 0 0 1 0-.757M40.279 9.746l-10.402-7.17c-.29-.2-.677.019-.677.38v2.223c0 .152.073.295.196.377l8.7 5.958a.463.463 0 0 1 0 .757l-8.7 5.96a.454.454 0 0 0-.196.377v2.189c0 .361.387.576.677.377L40.28 14a.454.454 0 0 0 .195-.377v-3.5a.454.454 0 0 0-.195-.377M26.179.003l-1.622.182a.462.462 0 0 0-.372.27l-2.09 4.747-5.478 12.449-2.41 5.475c-.14.316.125.661.477.62l1.655-.184a.464.464 0 0 0 .372-.27l2.08-4.741L24.254 6.1 26.657.625c.14-.316-.126-.661-.478-.62"/></g></svg>