<svg width="34" height="34" xmlns="http://www.w3.org/2000/svg" xmlns:xlink="http://www.w3.org/1999/xlink"><defs><path d="M.527.624C.657.496.783.374.905.252a3.6 3.6 0 0 0-.378.372" id="a"/><path d="M2.016 1.306c-.677.217-1.324.448-1.937.688l3.617 9.167c.258.65.876 1.05 1.534 1.058h.039c.121-.002.243-.016.365-.045.076-.018.154-.043.23-.073l.74-.49A1.674 1.674 0 0 0 7.608 9.64L5.861 2.213 5.441.422c-1.22.241-2.36.546-3.425.884" id="d"/><path d="M4.939.202c-.482.012-.943.213-1.378.582l-.377.37c-.005.003-.007.009-.012.015C1.73 2.782.652 6.292.265 10.659a41.553 41.553 0 0 0-.143 4.578 40.3 40.3 0 0 0 .518 5.694c.256 1.552.6 2.97 1.007 4.2.456 1.374.994 2.515 1.588 3.35.089.125.179.243.27.353.378.459.776.798 1.189.996.183.093.372.154.562.186.113.02.232.029.349.027 2.711-.06 4.797-6.181 4.827-13.893v-.336a42.293 42.293 0 0 0-.162-3.573c-.293-3.368-.97-6.328-1.877-8.469C7.45 1.545 6.254.202 4.98.202h-.04" id="f"/><path d="M4.939.202c-.482.012-.943.213-1.378.582l-.377.37c-.005.003-.007.009-.012.015C1.73 2.782.652 6.292.265 10.659a41.553 41.553 0 0 0-.143 4.578 40.3 40.3 0 0 0 .518 5.694c.544 3.285 1.47 5.967 2.595 7.55-.758-2.457-1.95-6.6-1.633-11.303.31-4.603 1.461-11.563 5.489-13.117a4.452 4.452 0 0 1 1.302-.289C7.45 1.545 6.254.202 4.98.202h-.04" id="h"/><path d="M2.657.205A2.96 2.96 0 0 0 .015 3.437L.291 6.2a2.961 2.961 0 0 0 3.233 2.642l.112-.015a2.894 2.894 0 0 1-.29-.646c-.451-1.465-.735-3.223-.777-5.117-.022-.995.023-1.959.128-2.862l-.04.003" id="j"/><path d="M.122 4.613c.044 2.02.227 3.943.518 5.693a5.148 5.148 0 0 0 4.644-5.238A5.148 5.148 0 0 0 .266.035a41.678 41.678 0 0 0-.144 4.578" id="l"/><path d="m.468.378.02-.147A.08.08 0 0 0 .47.225C.47.26.47.311.468.378" id="n"/><path d="M19.77 2.96c-.83 5.192.334 7.653-.7 8.58-1.156 1.036-3.133-.3-6.08-1.636-2.48-1.123-5.646-2.247-9.587-1.96-.775.056-1.865.144-2.948.452l.008.035c.07.28.144.55.225.813A2.866 2.866 0 0 0 3.56 11.26h.001c.302-.012.611-.021.927-.025a35.091 35.091 0 0 1 4.724.232c.435.05.876.11 1.324.182a34.124 34.124 0 0 1 3.736.799 34.644 34.644 0 0 1 9.42 4.166C21.83 14.348 20.446 9.127 20.31 3.02a42.493 42.493 0 0 1 .018-2.557c-.232.819-.425 1.669-.558 2.497" id="q"/><path d="M14.733 4.883a34.426 34.426 0 0 1-7.266 2.526c-1.545.35-2.995.57-4.318.7a2.86 2.86 0 0 0-2.548 2.48c-.01.079-.019.159-.03.238-.104.903-.15 1.867-.126 2.862.02.94.101 1.847.233 2.7 0-.684-.037-1.99.63-3.495 0 0 .808-1.824 2.539-3.143C5.535 8.466 7.02 8.516 8.779 8.567c1.265.037 2.672.073 4.396-.387 2.72-.726 5.051-3.234 8.896-8.03a34.578 34.578 0 0 1-7.338 4.733" id="r"/><linearGradient x1="13.75%" y1="50.84%" x2="86.302%" y2="49.221%" id="b"><stop stop-color="#60D1A7" offset="0%"/><stop stop-color="#36996E" offset="100%"/></linearGradient><linearGradient x1="55.625%" y1="32.172%" x2="42.1%" y2="64.494%" id="o"><stop stop-color="#1A90FB" offset="0%"/><stop stop-color="#2A4B95" offset="100%"/></linearGradient></defs><g fill="none" fill-rule="evenodd"><g transform="translate(25.5 .86)"><mask id="c" fill="#fff"><use xlink:href="#a"/></mask><path d="M.527.624C.657.496.783.374.905.252a3.6 3.6 0 0 0-.378.372" fill="url(#b)" mask="url(#c)"/></g><g transform="translate(7.438 21.58)"><mask id="e" fill="#fff"><use xlink:href="#d"/></mask><path d="M2.016 1.306c-.677.217-1.324.448-1.937.688l3.617 9.167c.258.65.876 1.05 1.534 1.058h.039c.121-.002.243-.016.365-.045.076-.018.154-.043.23-.073l.74-.49A1.674 1.674 0 0 0 7.608 9.64L5.861 2.213 5.441.422c-1.22.241-2.36.546-3.425.884" fill="#F2F2F2" mask="url(#e)"/></g><g transform="translate(22.844 .33)"><mask id="g" fill="#fff"><use xlink:href="#f"/></mask><path d="M4.939.202c-.482.012-.943.213-1.378.582l-.377.37c-.005.003-.007.009-.012.015C1.73 2.782.652 6.292.265 10.659a41.553 41.553 0 0 0-.143 4.578 40.3 40.3 0 0 0 .518 5.694c.256 1.552.6 2.97 1.007 4.2.456 1.374.994 2.515 1.588 3.35.089.125.179.243.27.353.378.459.776.798 1.189.996.183.093.372.154.562.186.113.02.232.029.349.027 2.711-.06 4.797-6.181 4.827-13.893v-.336a42.293 42.293 0 0 0-.162-3.573c-.293-3.368-.97-6.328-1.877-8.469C7.45 1.545 6.254.202 4.98.202h-.04" fill="#FFF" mask="url(#g)"/></g><path d="M26.349 29.162a34.411 34.411 0 0 0-13.157-4.965 34.024 34.024 0 0 0-3.819-.384 33.312 33.312 0 0 0-2.229-.03c-.315.004-.624.013-.927.025a2.865 2.865 0 0 1-2.872-2.016c-.081-.263-.155-.533-.227-.813l-.007-.034a17.12 17.12 0 0 1-.308-1.564v-.004a21.079 21.079 0 0 1-.233-2.702c-.023-.996.022-1.959.127-2.862l.029-.24a2.859 2.859 0 0 1 2.548-2.477 35.405 35.405 0 0 0 4.318-.701 34.587 34.587 0 0 0 14.604-7.259 35.546 35.546 0 0 0 1.82-1.64c-1.222 1.37-2.184 4.102-2.684 7.564a36.507 36.507 0 0 0-.348 3.95c-.032.83-.037 1.685-.018 2.557.136 6.108 1.519 11.328 3.383 13.595" fill="#FFF"/><g transform="translate(22.844 .33)"><mask id="i" fill="#fff"><use xlink:href="#h"/></mask><path d="M4.939.202c-.482.012-.943.213-1.378.582l-.377.37c-.005.003-.007.009-.012.015C1.73 2.782.652 6.292.265 10.659a41.553 41.553 0 0 0-.143 4.578 40.3 40.3 0 0 0 .518 5.694c.544 3.285 1.47 5.967 2.595 7.55-.758-2.457-1.95-6.6-1.633-11.303.31-4.603 1.461-11.563 5.489-13.117a4.452 4.452 0 0 1 1.302-.289C7.45 1.545 6.254.202 4.98.202h-.04" fill="#F2F2F2" mask="url(#i)"/></g><g transform="translate(0 13.61)"><mask id="k" fill="#fff"><use xlink:href="#j"/></mask><path d="M2.657.205A2.96 2.96 0 0 0 .015 3.437L.291 6.2a2.961 2.961 0 0 0 3.233 2.642l.112-.015a2.894 2.894 0 0 1-.29-.646c-.451-1.465-.735-3.223-.777-5.117-.022-.995.023-1.959.128-2.862l-.04.003" fill="#F2F2F2" mask="url(#k)"/></g><g transform="translate(22.844 10.954)"><mask id="m" fill="#fff"><use xlink:href="#l"/></mask><path d="M.122 4.613c.044 2.02.227 3.943.518 5.693a5.148 5.148 0 0 0 4.644-5.238A5.148 5.148 0 0 0 .266.035a41.678 41.678 0 0 0-.144 4.578" fill="#F2F2F2" mask="url(#m)"/></g><g transform="translate(22.844 8.83)"><mask id="p" fill="#fff"><use xlink:href="#n"/></mask><path d="m.468.378.02-.147A.08.08 0 0 0 .47.225C.47.26.47.311.468.378" fill="url(#o)" mask="url(#p)"/></g></g></svg>