<svg width="23" height="36" xmlns="http://www.w3.org/2000/svg"><g fill="#FFF" fill-rule="evenodd"><path d="M22.27 18.992c-1.214 1.189-2.7 3.11-3.304 5.8-.294 1.31-.312 2.063-.227 2.779a.803.803 0 0 1-.796.901H5.463a.803.803 0 0 1-.797-.9c.084-.717.066-1.47-.227-2.78-.632-2.8-2.213-4.766-3.447-5.942a1.22 1.22 0 0 1-.13-1.631A56.199 56.199 0 0 0 9.684.56c.203-.611 1.107-.465 1.107.178v13.693c0 .815-.365 1.586-.994 2.106-.93.769-1.39 2.085-.883 3.456.297.806.96 1.433 1.777 1.703 2.105.697 4.05-.845 4.05-2.84a3.006 3.006 0 0 0-1.34-2.506c-.653-.435-1.063-1.151-1.063-1.935V.55c0-.55.704-.78 1.032-.338.086.116.154.234.192.348a56.229 56.229 0 0 0 4.399 9.969c1.43 2.543 2.943 4.894 4.427 6.853.369.493.318 1.178-.119 1.61M19.364 35.65H4.334a2.089 2.089 0 0 1-2.085-2.08c0-1.145.938-2.081 2.085-2.081h15.03c1.147 0 2.085.936 2.085 2.08 0 1.145-.938 2.08-2.085 2.08"/></g></svg>