<svg width="50" height="49" xmlns="http://www.w3.org/2000/svg" xmlns:xlink="http://www.w3.org/1999/xlink"><defs><linearGradient x1="92.523%" y1="46.386%" x2="15.897%" y2="52.281%" id="c"><stop stop-color="#FDFDFB" offset="0%"/><stop stop-color="#FFF" stop-opacity="0" offset="100%"/></linearGradient><linearGradient x1="92.523%" y1="49.096%" x2="15.897%" y2="50.57%" id="d"><stop stop-color="#FDFDFB" offset="0%"/><stop stop-color="#FFF" stop-opacity="0" offset="100%"/></linearGradient><path d="M30.626.124C13.711.124 0 13.808 0 30.688c0 3.092.46 6.076 1.316 8.889a30.604 30.604 0 0 0 10.156 14.96 30.569 30.569 0 0 0 8.08 4.653 30.544 30.544 0 0 0 11.02 2.06h.054c16.916 0 30.627-13.682 30.627-30.562v-.054a30.405 30.405 0 0 0-2.07-11.009A30.67 30.67 0 0 0 39.548 1.442h.001A30.646 30.646 0 0 0 30.626.124Z" id="a"/></defs><g transform="translate(-11 -1)" fill="none" fill-rule="evenodd"><mask id="b" fill="#fff"><use xlink:href="#a"/></mask><path d="M30.626.124C13.711.124 0 13.808 0 30.688c0 3.092.46 6.076 1.316 8.889a30.604 30.604 0 0 0 10.156 14.96 30.569 30.569 0 0 0 8.08 4.653 30.544 30.544 0 0 0 11.02 2.06h.054c16.916 0 30.627-13.682 30.627-30.562v-.054a30.405 30.405 0 0 0-2.07-11.009A30.67 30.67 0 0 0 39.548 1.442h.001A30.646 30.646 0 0 0 30.626.124Z" mask="url(#b)"/><path fill="url(#c)" opacity=".3" mask="url(#b)" transform="rotate(-44 33 17)" d="M5 9h56v16H5z"/><path fill="url(#d)" opacity=".3" mask="url(#b)" transform="rotate(-44 43.221 34.123)" d="M15.221 30.123h56v8h-56z"/></g></svg>